<svg width="3000" height="3000" viewBox="0 0 3000 3000" fill="none" xmlns="http://www.w3.org/2000/svg">
<rect x="950" y="763" width="268" height="1475" fill="white"/>
<rect x="1782" y="763" width="268" height="1475" fill="white"/>
<rect x="1237" y="763" width="526" height="203" fill="white"/>
<rect x="1237" y="2035" width="526" height="203" fill="white"/>
<rect x="1237" y="1056" width="526" height="889" fill="white"/>
<path d="M1367.1 1365.6C1367.1 1367.6 1366.5 1369.2 1365.3 1370.4C1364.1 1371.53 1362.37 1372.1 1360.1 1372.1C1357.97 1372.1 1356.27 1371.53 1355 1370.4C1353.73 1369.27 1353.1 1367.67 1353.1 1365.6C1353.1 1363.67 1353.7 1362.13 1354.9 1361C1356.1 1359.8 1357.83 1359.2 1360.1 1359.2C1362.3 1359.2 1364.03 1359.8 1365.3 1361C1366.5 1362.13 1367.1 1363.67 1367.1 1365.6ZM1392.1 1392.3C1392.1 1394.3 1391.5 1395.9 1390.3 1397.1C1389.1 1398.23 1387.37 1398.8 1385.1 1398.8C1382.97 1398.8 1381.27 1398.23 1380 1397.1C1378.73 1395.97 1378.1 1394.37 1378.1 1392.3C1378.1 1390.37 1378.7 1388.83 1379.9 1387.7C1381.1 1386.5 1382.83 1385.9 1385.1 1385.9C1387.3 1385.9 1389.03 1386.5 1390.3 1387.7C1391.5 1388.83 1392.1 1390.37 1392.1 1392.3ZM1392.1 1365.6C1392.1 1367.6 1391.5 1369.2 1390.3 1370.4C1389.1 1371.53 1387.37 1372.1 1385.1 1372.1C1382.97 1372.1 1381.27 1371.53 1380 1370.4C1378.73 1369.27 1378.1 1367.67 1378.1 1365.6C1378.1 1363.67 1378.7 1362.13 1379.9 1361C1381.1 1359.8 1382.83 1359.2 1385.1 1359.2C1387.3 1359.2 1389.03 1359.8 1390.3 1361C1391.5 1362.13 1392.1 1363.67 1392.1 1365.6ZM1417.1 1392.3C1417.1 1394.3 1416.5 1395.9 1415.3 1397.1C1414.1 1398.23 1412.37 1398.8 1410.1 1398.8C1407.97 1398.8 1406.27 1398.23 1405 1397.1C1403.73 1395.97 1403.1 1394.37 1403.1 1392.3C1403.1 1390.37 1403.7 1388.83 1404.9 1387.7C1406.1 1386.5 1407.83 1385.9 1410.1 1385.9C1412.3 1385.9 1414.03 1386.5 1415.3 1387.7C1416.5 1388.83 1417.1 1390.37 1417.1 1392.3ZM1367.1 1322.28C1367.1 1324.28 1366.5 1325.88 1365.3 1327.08C1364.1 1328.21 1362.37 1328.78 1360.1 1328.78C1357.97 1328.78 1356.27 1328.21 1355 1327.08C1353.73 1325.95 1353.1 1324.35 1353.1 1322.28C1353.1 1320.35 1353.7 1318.81 1354.9 1317.68C1356.1 1316.48 1357.83 1315.88 1360.1 1315.88C1362.3 1315.88 1364.03 1316.48 1365.3 1317.68C1366.5 1318.81 1367.1 1320.35 1367.1 1322.28ZM1367.1 1252.26C1367.1 1254.26 1366.5 1255.86 1365.3 1257.06C1364.1 1258.19 1362.37 1258.76 1360.1 1258.76C1357.97 1258.76 1356.27 1258.19 1355 1257.06C1353.73 1255.93 1353.1 1254.33 1353.1 1252.26C1353.1 1250.33 1353.7 1248.79 1354.9 1247.66C1356.1 1246.46 1357.83 1245.86 1360.1 1245.86C1362.3 1245.86 1364.03 1246.46 1365.3 1247.66C1366.5 1248.79 1367.1 1250.33 1367.1 1252.26ZM1392.1 1225.56C1392.1 1227.56 1391.5 1229.16 1390.3 1230.36C1389.1 1231.49 1387.37 1232.06 1385.1 1232.06C1382.97 1232.06 1381.27 1231.49 1380 1230.36C1378.73 1229.23 1378.1 1227.63 1378.1 1225.56C1378.1 1223.63 1378.7 1222.09 1379.9 1220.96C1381.1 1219.76 1382.83 1219.16 1385.1 1219.16C1387.3 1219.16 1389.03 1219.76 1390.3 1220.96C1391.5 1222.09 1392.1 1223.63 1392.1 1225.56ZM1392.1 1252.26C1392.1 1254.26 1391.5 1255.86 1390.3 1257.06C1389.1 1258.19 1387.37 1258.76 1385.1 1258.76C1382.97 1258.76 1381.27 1258.19 1380 1257.06C1378.73 1255.93 1378.1 1254.33 1378.1 1252.26C1378.1 1250.33 1378.7 1248.79 1379.9 1247.66C1381.1 1246.46 1382.83 1245.86 1385.1 1245.86C1387.3 1245.86 1389.03 1246.46 1390.3 1247.66C1391.5 1248.79 1392.1 1250.33 1392.1 1252.26ZM1417.1 1252.26C1417.1 1254.26 1416.5 1255.86 1415.3 1257.06C1414.1 1258.19 1412.37 1258.76 1410.1 1258.76C1407.97 1258.76 1406.27 1258.19 1405 1257.06C1403.73 1255.93 1403.1 1254.33 1403.1 1252.26C1403.1 1250.33 1403.7 1248.79 1404.9 1247.66C1406.1 1246.46 1407.83 1245.86 1410.1 1245.86C1412.3 1245.86 1414.03 1246.46 1415.3 1247.66C1416.5 1248.79 1417.1 1250.33 1417.1 1252.26ZM1367.1 1155.54C1367.1 1157.54 1366.5 1159.14 1365.3 1160.34C1364.1 1161.47 1362.37 1162.04 1360.1 1162.04C1357.97 1162.04 1356.27 1161.47 1355 1160.34C1353.73 1159.21 1353.1 1157.61 1353.1 1155.54C1353.1 1153.61 1353.7 1152.07 1354.9 1150.94C1356.1 1149.74 1357.83 1149.14 1360.1 1149.14C1362.3 1149.14 1364.03 1149.74 1365.3 1150.94C1366.5 1152.07 1367.1 1153.61 1367.1 1155.54ZM1392.1 1182.24C1392.1 1184.24 1391.5 1185.84 1390.3 1187.04C1389.1 1188.17 1387.37 1188.74 1385.1 1188.74C1382.97 1188.74 1381.27 1188.17 1380 1187.04C1378.73 1185.91 1378.1 1184.31 1378.1 1182.24C1378.1 1180.31 1378.7 1178.77 1379.9 1177.64C1381.1 1176.44 1382.83 1175.84 1385.1 1175.84C1387.3 1175.84 1389.03 1176.44 1390.3 1177.64C1391.5 1178.77 1392.1 1180.31 1392.1 1182.24ZM1417.1 1182.24C1417.1 1184.24 1416.5 1185.84 1415.3 1187.04C1414.1 1188.17 1412.37 1188.74 1410.1 1188.74C1407.97 1188.74 1406.27 1188.17 1405 1187.04C1403.73 1185.91 1403.1 1184.31 1403.1 1182.24C1403.1 1180.31 1403.7 1178.77 1404.9 1177.64C1406.1 1176.44 1407.83 1175.84 1410.1 1175.84C1412.3 1175.84 1414.03 1176.44 1415.3 1177.64C1416.5 1178.77 1417.1 1180.31 1417.1 1182.24ZM1367.1 1085.52C1367.1 1087.52 1366.5 1089.12 1365.3 1090.32C1364.1 1091.46 1362.37 1092.02 1360.1 1092.02C1357.97 1092.02 1356.27 1091.46 1355 1090.32C1353.73 1089.19 1353.1 1087.59 1353.1 1085.52C1353.1 1083.59 1353.7 1082.06 1354.9 1080.92C1356.1 1079.72 1357.83 1079.12 1360.1 1079.12C1362.3 1079.12 1364.03 1079.72 1365.3 1080.92C1366.5 1082.06 1367.1 1083.59 1367.1 1085.52ZM1367.1 1112.22C1367.1 1114.22 1366.5 1115.82 1365.3 1117.02C1364.1 1118.16 1362.37 1118.72 1360.1 1118.72C1357.97 1118.72 1356.27 1118.16 1355 1117.02C1353.73 1115.89 1353.1 1114.29 1353.1 1112.22C1353.1 1110.29 1353.7 1108.76 1354.9 1107.62C1356.1 1106.42 1357.83 1105.82 1360.1 1105.82C1362.3 1105.82 1364.03 1106.42 1365.3 1107.62C1366.5 1108.76 1367.1 1110.29 1367.1 1112.22ZM1417.1 1112.22C1417.1 1114.22 1416.5 1115.82 1415.3 1117.02C1414.1 1118.16 1412.37 1118.72 1410.1 1118.72C1407.97 1118.72 1406.27 1118.16 1405 1117.02C1403.73 1115.89 1403.1 1114.29 1403.1 1112.22C1403.1 1110.29 1403.7 1108.76 1404.9 1107.62C1406.1 1106.42 1407.83 1105.82 1410.1 1105.82C1412.3 1105.82 1414.03 1106.42 1415.3 1107.62C1416.5 1108.76 1417.1 1110.29 1417.1 1112.22ZM1417.1 1085.52C1417.1 1087.52 1416.5 1089.12 1415.3 1090.32C1414.1 1091.46 1412.37 1092.02 1410.1 1092.02C1407.97 1092.02 1406.27 1091.46 1405 1090.32C1403.73 1089.19 1403.1 1087.59 1403.1 1085.52C1403.1 1083.59 1403.7 1082.06 1404.9 1080.92C1406.1 1079.72 1407.83 1079.12 1410.1 1079.12C1412.3 1079.12 1414.03 1079.72 1415.3 1080.92C1416.5 1082.06 1417.1 1083.59 1417.1 1085.52Z" fill="black"/>
<path d="M1262.5 1409.1V1357.8H1274.3V1377.5H1330V1389.4H1274.3V1409.1H1262.5ZM1275.7 1325.5L1330 1346.9V1359.9L1270 1336.2C1263.7 1333.7 1261.3 1329.1 1261.3 1322C1261.3 1315 1263.7 1310.4 1270 1308L1330 1285.2V1298.3L1275.7 1318.8C1274.1 1319.4 1273.4 1320.5 1273.4 1322.1C1273.4 1323.7 1274.1 1324.8 1275.7 1325.5ZM1262.5 1275.39V1238.79C1262.5 1223.59 1271.9 1217.09 1282.7 1217.09C1291.1 1217.09 1300.1 1221.09 1303 1231.39L1330 1215.69V1228.79L1303.9 1244.19V1261.79C1303.9 1262.89 1304.4 1263.49 1305.6 1263.49H1330V1275.29H1303.3C1295.7 1275.29 1292.6 1272.09 1292.6 1264.69V1238.39C1292.6 1231.69 1288 1228.99 1283.2 1228.99C1278.4 1228.99 1274.3 1231.89 1274.3 1238.39V1275.39H1262.5ZM1262.5 1185.9V1151.7H1274.3V1186.3C1274.3 1192.4 1277.6 1195.1 1282.3 1195.1C1286.4 1195.1 1290.3 1193 1290.3 1185.1V1169.3C1290.3 1150.9 1300.5 1146.6 1310.2 1146.6C1321.6 1146.6 1330 1152.7 1330 1168.1V1205.7H1318.2V1167.7C1318.2 1161.3 1314.7 1158.4 1309.8 1158.4C1305.4 1158.4 1301.4 1160.7 1301.4 1169V1184.7C1301.4 1202.7 1291.3 1206.9 1281.9 1206.9C1270.7 1206.9 1262.5 1200.9 1262.5 1185.9ZM1262.5 1139.92V1125.52L1287.4 1104.82L1262.5 1083.12V1068.52L1295.7 1097.42L1330 1068.32V1082.72L1303.2 1105.12L1330 1128.12V1142.72L1294.8 1112.52L1262.5 1139.92Z" fill="black"/>
</svg>
