<svg width="3000" height="3000" viewBox="0 0 3000 3000" fill="none" xmlns="http://www.w3.org/2000/svg">
<path d="M650.5 2120.5H907V2179.5H808.5V2458H749V2179.5H650.5V2120.5ZM1068.48 2186.5L961.477 2458H896.477L1014.98 2158C1027.48 2126.5 1050.48 2114.5 1085.98 2114.5C1120.98 2114.5 1143.98 2126.5 1155.98 2158L1269.98 2458H1204.48L1101.98 2186.5C1098.98 2178.5 1093.48 2175 1085.48 2175C1077.48 2175 1071.98 2178.5 1068.48 2186.5ZM1319.07 2120.5H1502.07C1578.07 2120.5 1610.57 2167.5 1610.57 2221.5C1610.57 2263.5 1590.57 2308.5 1539.07 2323L1617.57 2458H1552.07L1475.07 2327.5H1387.07C1381.57 2327.5 1378.57 2330 1378.57 2336V2458H1319.57V2324.5C1319.57 2286.5 1335.57 2271 1372.57 2271H1504.07C1537.57 2271 1551.07 2248 1551.07 2224C1551.07 2200 1536.57 2179.5 1504.07 2179.5H1319.07V2120.5ZM1766.5 2120.5H1937.5V2179.5H1764.5C1734 2179.5 1720.5 2196 1720.5 2219.5C1720.5 2240 1731 2259.5 1770.5 2259.5H1849.5C1941.5 2259.5 1963 2310.5 1963 2359C1963 2416 1932.5 2458 1855.5 2458H1667.5V2399H1857.5C1889.5 2399 1904 2381.5 1904 2357C1904 2335 1892.5 2315 1851 2315H1772.5C1682.5 2315 1661.5 2264.5 1661.5 2217.5C1661.5 2161.5 1691.5 2120.5 1766.5 2120.5ZM1996.41 2120.5H2068.41L2171.91 2245L2280.41 2120.5H2353.41L2208.91 2286.5L2354.41 2458H2282.41L2170.41 2324L2055.41 2458H1982.41L2133.41 2282L1996.41 2120.5Z" fill="white"/>
<rect x="956" y="410" width="268" height="1475" fill="white"/>
<rect x="1788" y="410" width="268" height="1475" fill="white"/>
<rect x="1243" y="410" width="526" height="203" fill="white"/>
<rect x="1243" y="1682" width="526" height="203" fill="white"/>
<rect x="1243" y="703" width="526" height="889" fill="white"/>
<path d="M1373.1 1012.6C1373.1 1014.6 1372.5 1016.2 1371.3 1017.4C1370.1 1018.53 1368.37 1019.1 1366.1 1019.1C1363.97 1019.1 1362.27 1018.53 1361 1017.4C1359.73 1016.27 1359.1 1014.67 1359.1 1012.6C1359.1 1010.67 1359.7 1009.13 1360.9 1008C1362.1 1006.8 1363.83 1006.2 1366.1 1006.2C1368.3 1006.2 1370.03 1006.8 1371.3 1008C1372.5 1009.13 1373.1 1010.67 1373.1 1012.6ZM1398.1 1039.3C1398.1 1041.3 1397.5 1042.9 1396.3 1044.1C1395.1 1045.23 1393.37 1045.8 1391.1 1045.8C1388.97 1045.8 1387.27 1045.23 1386 1044.1C1384.73 1042.97 1384.1 1041.37 1384.1 1039.3C1384.1 1037.37 1384.7 1035.83 1385.9 1034.7C1387.1 1033.5 1388.83 1032.9 1391.1 1032.9C1393.3 1032.9 1395.03 1033.5 1396.3 1034.7C1397.5 1035.83 1398.1 1037.37 1398.1 1039.3ZM1398.1 1012.6C1398.1 1014.6 1397.5 1016.2 1396.3 1017.4C1395.1 1018.53 1393.37 1019.1 1391.1 1019.1C1388.97 1019.1 1387.27 1018.53 1386 1017.4C1384.73 1016.27 1384.1 1014.67 1384.1 1012.6C1384.1 1010.67 1384.7 1009.13 1385.9 1008C1387.1 1006.8 1388.83 1006.2 1391.1 1006.2C1393.3 1006.2 1395.03 1006.8 1396.3 1008C1397.5 1009.13 1398.1 1010.67 1398.1 1012.6ZM1423.1 1039.3C1423.1 1041.3 1422.5 1042.9 1421.3 1044.1C1420.1 1045.23 1418.37 1045.8 1416.1 1045.8C1413.97 1045.8 1412.27 1045.23 1411 1044.1C1409.73 1042.97 1409.1 1041.37 1409.1 1039.3C1409.1 1037.37 1409.7 1035.83 1410.9 1034.7C1412.1 1033.5 1413.83 1032.9 1416.1 1032.9C1418.3 1032.9 1420.03 1033.5 1421.3 1034.7C1422.5 1035.83 1423.1 1037.37 1423.1 1039.3ZM1373.1 969.28C1373.1 971.28 1372.5 972.88 1371.3 974.08C1370.1 975.214 1368.37 975.78 1366.1 975.78C1363.97 975.78 1362.27 975.214 1361 974.08C1359.73 972.947 1359.1 971.347 1359.1 969.28C1359.1 967.347 1359.7 965.814 1360.9 964.68C1362.1 963.48 1363.83 962.88 1366.1 962.88C1368.3 962.88 1370.03 963.48 1371.3 964.68C1372.5 965.814 1373.1 967.347 1373.1 969.28ZM1373.1 899.261C1373.1 901.261 1372.5 902.861 1371.3 904.061C1370.1 905.194 1368.37 905.761 1366.1 905.761C1363.97 905.761 1362.27 905.194 1361 904.061C1359.73 902.928 1359.1 901.328 1359.1 899.261C1359.1 897.328 1359.7 895.794 1360.9 894.661C1362.1 893.461 1363.83 892.861 1366.1 892.861C1368.3 892.861 1370.03 893.461 1371.3 894.661C1372.5 895.794 1373.1 897.328 1373.1 899.261ZM1398.1 872.561C1398.1 874.561 1397.5 876.161 1396.3 877.361C1395.1 878.494 1393.37 879.061 1391.1 879.061C1388.97 879.061 1387.27 878.494 1386 877.361C1384.73 876.228 1384.1 874.628 1384.1 872.561C1384.1 870.628 1384.7 869.094 1385.9 867.961C1387.1 866.761 1388.83 866.161 1391.1 866.161C1393.3 866.161 1395.03 866.761 1396.3 867.961C1397.5 869.094 1398.1 870.628 1398.1 872.561ZM1398.1 899.261C1398.1 901.261 1397.5 902.861 1396.3 904.061C1395.1 905.194 1393.37 905.761 1391.1 905.761C1388.97 905.761 1387.27 905.194 1386 904.061C1384.73 902.928 1384.1 901.328 1384.1 899.261C1384.1 897.328 1384.7 895.794 1385.9 894.661C1387.1 893.461 1388.83 892.861 1391.1 892.861C1393.3 892.861 1395.03 893.461 1396.3 894.661C1397.5 895.794 1398.1 897.328 1398.1 899.261ZM1423.1 899.261C1423.1 901.261 1422.5 902.861 1421.3 904.061C1420.1 905.194 1418.37 905.761 1416.1 905.761C1413.97 905.761 1412.27 905.194 1411 904.061C1409.73 902.928 1409.1 901.328 1409.1 899.261C1409.1 897.328 1409.7 895.794 1410.9 894.661C1412.1 893.461 1413.83 892.861 1416.1 892.861C1418.3 892.861 1420.03 893.461 1421.3 894.661C1422.5 895.794 1423.1 897.328 1423.1 899.261ZM1373.1 802.541C1373.1 804.541 1372.5 806.141 1371.3 807.341C1370.1 808.475 1368.37 809.041 1366.1 809.041C1363.97 809.041 1362.27 808.475 1361 807.341C1359.73 806.208 1359.1 804.608 1359.1 802.541C1359.1 800.608 1359.7 799.075 1360.9 797.941C1362.1 796.741 1363.83 796.141 1366.1 796.141C1368.3 796.141 1370.03 796.741 1371.3 797.941C1372.5 799.075 1373.1 800.608 1373.1 802.541ZM1398.1 829.241C1398.1 831.241 1397.5 832.841 1396.3 834.041C1395.1 835.175 1393.37 835.741 1391.1 835.741C1388.97 835.741 1387.27 835.175 1386 834.041C1384.73 832.908 1384.1 831.308 1384.1 829.241C1384.1 827.308 1384.7 825.775 1385.9 824.641C1387.1 823.441 1388.83 822.841 1391.1 822.841C1393.3 822.841 1395.03 823.441 1396.3 824.641C1397.5 825.775 1398.1 827.308 1398.1 829.241ZM1423.1 829.241C1423.1 831.241 1422.5 832.841 1421.3 834.041C1420.1 835.175 1418.37 835.741 1416.1 835.741C1413.97 835.741 1412.27 835.175 1411 834.041C1409.73 832.908 1409.1 831.308 1409.1 829.241C1409.1 827.308 1409.7 825.775 1410.9 824.641C1412.1 823.441 1413.83 822.841 1416.1 822.841C1418.3 822.841 1420.03 823.441 1421.3 824.641C1422.5 825.775 1423.1 827.308 1423.1 829.241ZM1373.1 732.522C1373.1 734.522 1372.5 736.122 1371.3 737.322C1370.1 738.455 1368.37 739.022 1366.1 739.022C1363.97 739.022 1362.27 738.455 1361 737.322C1359.73 736.189 1359.1 734.589 1359.1 732.522C1359.1 730.589 1359.7 729.055 1360.9 727.922C1362.1 726.722 1363.83 726.122 1366.1 726.122C1368.3 726.122 1370.03 726.722 1371.3 727.922C1372.5 729.055 1373.1 730.589 1373.1 732.522ZM1373.1 759.222C1373.1 761.222 1372.5 762.822 1371.3 764.022C1370.1 765.155 1368.37 765.722 1366.1 765.722C1363.97 765.722 1362.27 765.155 1361 764.022C1359.73 762.889 1359.1 761.289 1359.1 759.222C1359.1 757.289 1359.7 755.755 1360.9 754.622C1362.1 753.422 1363.83 752.822 1366.1 752.822C1368.3 752.822 1370.03 753.422 1371.3 754.622C1372.5 755.755 1373.1 757.289 1373.1 759.222ZM1423.1 759.222C1423.1 761.222 1422.5 762.822 1421.3 764.022C1420.1 765.155 1418.37 765.722 1416.1 765.722C1413.97 765.722 1412.27 765.155 1411 764.022C1409.73 762.889 1409.1 761.289 1409.1 759.222C1409.1 757.289 1409.7 755.755 1410.9 754.622C1412.1 753.422 1413.83 752.822 1416.1 752.822C1418.3 752.822 1420.03 753.422 1421.3 754.622C1422.5 755.755 1423.1 757.289 1423.1 759.222ZM1423.1 732.522C1423.1 734.522 1422.5 736.122 1421.3 737.322C1420.1 738.455 1418.37 739.022 1416.1 739.022C1413.97 739.022 1412.27 738.455 1411 737.322C1409.73 736.189 1409.1 734.589 1409.1 732.522C1409.1 730.589 1409.7 729.055 1410.9 727.922C1412.1 726.722 1413.83 726.122 1416.1 726.122C1418.3 726.122 1420.03 726.722 1421.3 727.922C1422.5 729.055 1423.1 730.589 1423.1 732.522Z" fill="black"/>
<path d="M1268.5 1056.1V1004.8H1280.3V1024.5H1336V1036.4H1280.3V1056.1H1268.5ZM1281.7 972.505L1336 993.905V1006.9L1276 983.205C1269.7 980.705 1267.3 976.105 1267.3 969.005C1267.3 962.005 1269.7 957.405 1276 955.005L1336 932.205V945.305L1281.7 965.805C1280.1 966.405 1279.4 967.505 1279.4 969.105C1279.4 970.705 1280.1 971.805 1281.7 972.505ZM1268.5 922.387V885.787C1268.5 870.587 1277.9 864.087 1288.7 864.087C1297.1 864.087 1306.1 868.087 1309 878.387L1336 862.687V875.787L1309.9 891.187V908.787C1309.9 909.887 1310.4 910.487 1311.6 910.487H1336V922.287H1309.3C1301.7 922.287 1298.6 919.087 1298.6 911.687V885.387C1298.6 878.687 1294 875.987 1289.2 875.987C1284.4 875.987 1280.3 878.887 1280.3 885.387V922.387H1268.5ZM1268.5 832.9V798.7H1280.3V833.3C1280.3 839.4 1283.6 842.1 1288.3 842.1C1292.4 842.1 1296.3 840 1296.3 832.1V816.3C1296.3 797.9 1306.5 793.6 1316.2 793.6C1327.6 793.6 1336 799.7 1336 815.1V852.7H1324.2V814.7C1324.2 808.3 1320.7 805.4 1315.8 805.4C1311.4 805.4 1307.4 807.7 1307.4 816V831.7C1307.4 849.7 1297.3 853.9 1287.9 853.9C1276.7 853.9 1268.5 847.9 1268.5 832.9ZM1268.5 786.917V772.517L1293.4 751.817L1268.5 730.117V715.517L1301.7 744.417L1336 715.317V729.717L1309.2 752.117L1336 775.117V789.717L1300.8 759.517L1268.5 786.917Z" fill="black"/>
</svg>
